<?xml version="1.0" encoding="utf-8"?>
<!-- Generator: Adobe Illustrator 22.0.1, SVG Export Plug-In . SVG Version: 6.00 Build 0)  -->
<svg version="1.1" id="Layer_1" xmlns="http://www.w3.org/2000/svg" xmlns:xlink="http://www.w3.org/1999/xlink" x="0px" y="0px"
	 viewBox="0 0 16 16" style="enable-background:new 0 0 16 16;" xml:space="preserve">
<style type="text/css">
	.st0{fill:#9E9CAA;}
</style>
<path class="st0" d="M10.8,5H5.2C4.8,5,4.6,5.3,4.6,5.6c0,0.3,0.3,0.6,0.6,0.6h5.7c0.3,0,0.6-0.3,0.6-0.6C11.4,5.3,11.2,5,10.8,5z
	 M10.8,7.4H5.2C4.8,7.4,4.6,7.7,4.6,8s0.3,0.6,0.6,0.6h5.7c0.3,0,0.6-0.3,0.6-0.6S11.2,7.4,10.8,7.4z M10.8,9.8H5.2
	c-0.3,0-0.6,0.3-0.6,0.6S4.8,11,5.2,11h5.7c0.3,0,0.6-0.3,0.6-0.6S11.2,9.8,10.8,9.8z"/>
<path class="st0" d="M8,0C3.6,0,0,3.5,0,7.9c0,1,0.2,1.9,0.5,2.9c0.3,0.7,0.7,1.4,1.1,1.9l-1.1,2.5c-0.1,0.2-0.1,0.4,0.1,0.6
	C0.8,15.9,1,16,1.2,16l4.1-0.7c0.8,0.3,1.7,0.4,2.6,0.4c4.4,0,8-3.5,8-7.9S12.4,0,8,0z M8,14.5c-0.8,0-1.6-0.1-2.4-0.4
	c-0.1,0-0.2,0-0.3,0l-3.2,0.5l0.8-1.8C3,12.6,3,12.3,2.8,12.2C2.3,11.6,2,11,1.7,10.3C1.4,9.5,1.2,8.7,1.2,7.9c0-3.7,3-6.7,6.8-6.7
	s6.8,3,6.8,6.7S11.7,14.5,8,14.5z"/>
</svg>
