<svg xmlns="http://www.w3.org/2000/svg" width="512" height="512"><path d="M466.706 66.173c-29.609-29.609-69.224-45.914-111.56-45.914-36.448 0-70.876 12.088-98.643 34.342-28.166-22.254-62.637-34.342-98.729-34.342-42.532 0-82.252 16.312-111.86 45.914C16.305 95.776 0 135.398 0 177.727c0 42.335 16.305 81.951 45.914 111.553l197.065 197.065A18.338 18.338 0 0 0 256 491.741c4.703 0 9.405-1.793 13.003-5.372l197.224-196.623C495.75 259.561 512 219.89 512 178.034c0-42.243-16.035-81.914-45.294-111.861zm-26.65 197.648L256.018 447.294 71.956 263.238c-22.647-22.653-35.122-53.023-35.122-85.511s12.475-62.858 35.122-85.511c22.653-22.647 53.128-35.122 85.818-35.122 32.169 0 62.705 12.53 85.966 35.269 7.207 7.054 18.767 6.992 25.895-.147 22.653-22.647 53.017-35.122 85.511-35.122 32.494 0 62.858 12.475 85.358 34.974 22.352 22.868 34.661 53.398 34.661 85.966 0 32.175-12.523 62.704-35.109 85.787z" fill="#9e9caa"/></svg>