<svg xmlns="http://www.w3.org/2000/svg" width="512" height="512"><path d="M494.664 30.628H17.336C7.761 30.628 0 38.388 0 47.964v325.923c0 9.575 7.761 17.336 17.336 17.336H397.88l84.486 85.029a17.34 17.34 0 0 0 12.303 5.12c2.219 0 4.461-.428 6.605-1.312a17.327 17.327 0 0 0 10.725-16.025V47.964c.001-9.576-7.76-17.336-17.335-17.336zM477.327 421.99l-59.938-60.319a17.307 17.307 0 0 0-12.297-5.12H34.673V65.3h442.655v356.69z" fill="#9e9caa"/><path d="M256 154.871c-30.593 0-55.476 24.889-55.476 55.476s24.889 55.476 55.476 55.476c30.593 0 55.482-24.889 55.482-55.476S286.593 154.871 256 154.871zm0 76.28c-11.471 0-20.804-9.333-20.804-20.804 0-11.471 9.333-20.804 20.804-20.804 11.471 0 20.809 9.333 20.809 20.804 0 11.471-9.338 20.804-20.809 20.804zM123.088 154.871c-30.593 0-55.476 24.889-55.476 55.476s24.889 55.476 55.476 55.476 55.476-24.889 55.476-55.476-24.883-55.476-55.476-55.476zm0 76.28c-11.471 0-20.804-9.333-20.804-20.804 0-11.471 9.333-20.804 20.804-20.804 11.471 0 20.804 9.333 20.804 20.804 0 11.471-9.333 20.804-20.804 20.804zM388.912 154.871c-30.587 0-55.476 24.889-55.476 55.476s24.889 55.476 55.476 55.476c30.593 0 55.482-24.889 55.482-55.476s-24.889-55.476-55.482-55.476zm0 76.28c-11.471 0-20.804-9.333-20.804-20.804 0-11.471 9.339-20.804 20.804-20.804 11.471 0 20.809 9.333 20.809 20.804 0 11.471-9.338 20.804-20.809 20.804z" fill="#9e9caa"/></svg>