<svg id="layer1" xmlns="http://www.w3.org/2000/svg" viewBox="0 0 195.4 118.6"><style>.st0{fill:#fff}.st1{fill:#fa012d}</style><path id="path2475" class="st0" d="M27 0c-6.6 0-11.8 5.3-11.8 11.8v77.9c0 6.6 5.3 11.8 11.8 11.8h137.6L193.2 90 185 .1 27 0z"/><path id="rect2470" class="st1" d="M183.5 0c6.6 0 11.8 5.3 11.8 11.8v77.9c0 6.6-5.3 11.8-11.8 11.8h-21.6l.3-8.7c12.1.6 20.1-.9 24.6-5.8 0-2.1 1.6-5.6-1.6-11.6-1.8-3.3-3.9-7.2-11-12.1-.4-5.4-3.3-8-5.4-10.6-2.3-2.9-4-5.4-6.4-6.6L134.2.1l49.3-.1z"/><path id="path2473" d="M11.8 0C5.3 0 0 5.3 0 11.8v77.9c0 6.6 5.3 11.8 11.8 11.8h69.7c-.8-2.7-2.9-8.4-4.8-8.4-1.5-.1-7.4.6-8.4-.5 4.4-32.5 10.1-30.1 15.8-34.3 1-.8-.7-1.7 0-2.7.9-1.2-.9-2.4-.3-3.6 1-1.8-6.9.3-6.3-1.5 1.2-3.5 2.7-5.8 3.5-8.8.7-2.5-.1-1.3-.1-2.5 0-1.7-12.7.9-12.3-.7.7-2.9 11.1-5.9 10.9-8.8C79 16.8 89.9 10 97.7 10.2c13.6-.2 17.4 1.3 22.4 10.2 3.2 6.5 7.1 17.2.2 20.2.4 3.2 1.2 5.9 2.9 7 2.4-.1 3.4.1 5.4.1 14.4 0 21.1 1.1 24.6 3.5l.9-6L119.5.1 11.8 0z" fill="#092668"/><path class="st1" d="M0 118.4v-13.5h3.4l1.6 7.2c.1.4.2.9.2 1.4.1.5.1 1.2.2 1.9 0-.7.1-1.3.2-1.9.1-.5.2-1 .3-1.4l1.8-7.2h3.2v13.5H8.7v-1.3-2c0-1.8 0-3.4.1-4.9.1-1.5.2-2.9.3-4.1l-3 12.3H4.7L1.9 106c.1 1.7.1 3.6.2 5.7 0 2 .1 4.3.1 6.6H0zm16-4.6h2.1l-1-7.9H17l-1 7.9zm-3.2 4.6l2.6-13.5h3.4l2.7 13.5h-2.6l-.4-2.7h-2.6l-.4 2.7h-2.7zm9.2.1v-1.9c.2 0 .3.1.5.1h.4c.5 0 .9-.1 1.1-.4.2-.3.3-.9.3-1.7v-9.8h2.6v10c0 1.3-.3 2.3-.8 2.9-.5.6-1.4.9-2.7.9h-.7c-.2-.1-.5-.1-.7-.1zm10.4-10.2v6.5c0 .7.1 1.2.4 1.6.3.3.7.5 1.2.5s.9-.2 1.2-.5c.3-.3.4-.8.4-1.6v-6.5c0-.7-.1-1.2-.4-1.6-.3-.3-.7-.5-1.2-.5s-.9.2-1.2.5c-.3.4-.4.9-.4 1.6zm-2.6 1.1c0-1.7.3-2.9 1-3.7.7-.8 1.7-1.1 3.2-1.1 1.5 0 2.6.4 3.2 1.1.7.8 1 2 1 3.7v4.4c0 1.7-.3 2.9-1 3.7-.7.8-1.7 1.1-3.2 1.1-1.5 0-2.6-.4-3.2-1.1-.7-.8-1-2-1-3.7v-4.4zm13.8 1.5h.6c.9 0 1.5-.2 1.8-.5.3-.3.5-.9.5-1.8 0-.8-.2-1.3-.5-1.6-.3-.3-.9-.5-1.6-.5h-.9v4.4zm-2.6 7.5v-13.5h2.9c2 0 3.4.3 4.2.9.8.6 1.1 1.6 1.1 3.1 0 .9-.2 1.6-.5 2.2-.3.6-.8 1-1.5 1.3l2.3 6.1h-2.7l-2.1-5.7h-1.1v5.7H41zm15.4 0v-13.5H59v11.7h4.8v1.9h-7.4zm8.8 0v-13.5h7v1.8h-4.4v3.7h3.4v1.8h-3.4v4.3h4.8v1.8h-7.4zm11.2-4.6h2.1l-1-7.9h-.1l-1 7.9zm-3.2 4.6l2.6-13.5h3.4l2.7 13.5h-2.6l-.4-2.7h-2.6l-.4 2.7h-2.7zm18.6 0h-1.2l-.6-1c-.4.4-.8.7-1.3.9-.5.2-1 .3-1.6.3-1.3 0-2.2-.4-2.8-1.1-.6-.8-.9-1.9-.9-3.6v-4.4c0-1.7.3-2.9 1-3.7.7-.8 1.7-1.1 3.2-1.1 1.4 0 2.4.4 3.2 1.1.7.7 1.1 1.7 1.1 3.1v.5h-2.6v-.9c0-.7-.1-1.2-.4-1.6-.3-.3-.7-.5-1.2-.5s-.9.2-1.2.5c-.3.3-.4.8-.4 1.6v6.5c0 .7.1 1.2.4 1.6.3.3.7.5 1.2.5s.9-.2 1.2-.5c.3-.3.4-.8.4-1.6v-1.6h-1.4v-1.7h4v6.7zm2.7-4.3v-9.3h2.6v9.8c0 .7.1 1.3.3 1.6.2.3.6.5 1.1.5.5 0 .9-.2 1.1-.5.2-.3.3-.9.3-1.6v-9.8h2.6v9.3c0 1.6-.3 2.8-.9 3.5-.6.7-1.7 1-3.1 1-1.5 0-2.5-.3-3.1-1-.6-.7-.9-1.8-.9-3.5zm11.1 4.3v-13.5h7v1.8h-4.4v3.7h3.4v1.8h-3.4v4.3h4.8v1.8h-7.4zm16.5-7.9h.8c.8 0 1.4-.1 1.7-.4.3-.3.5-.8.5-1.6 0-.7-.2-1.2-.5-1.5-.3-.3-.9-.4-1.7-.4h-.8v3.9zm0 6.1h.9c.9 0 1.5-.2 1.8-.5.3-.3.5-.9.5-1.8 0-.8-.2-1.3-.5-1.6-.3-.3-.9-.5-1.8-.5h-.9v4.4zm-2.6 1.8v-13.5h3.3c1.9 0 3.2.3 3.9.8.7.5 1.1 1.4 1.1 2.7 0 .8-.1 1.5-.4 1.9-.3.5-.7.8-1.3 1 .7.2 1.2.6 1.5 1.1.3.5.5 1.2.5 2.1 0 1.4-.4 2.4-1.2 3-.8.6-2.1.9-3.9.9h-3.5zm12.9-4.6h2.1l-1-7.9h-.1l-1 7.9zm-3.2 4.6l2.6-13.5h3.4l2.7 13.5h-2.6l-.4-2.7h-2.6l-.4 2.7h-2.7zm9.4-3.5l2.5-.3v.1c0 .7.1 1.3.4 1.6.2.4.6.6 1.1.6.4 0 .8-.1 1-.4.2-.3.4-.6.4-1.1 0-.3-.1-.7-.2-1-.2-.3-.4-.7-.8-1-.3-.3-.9-.9-1.7-1.6-.8-.7-1.3-1.3-1.6-1.6-.3-.4-.5-.8-.7-1.2-.2-.4-.2-.8-.2-1.1 0-1 .3-1.8 1-2.4.7-.6 1.6-.9 2.7-.9s2.1.3 2.7.9c.7.6 1 1.4 1.1 2.5l-2.4.2c0-.6-.2-1.1-.4-1.4-.2-.3-.6-.4-1-.4-.3 0-.6.1-.8.4-.2.2-.3.5-.3.9 0 .3.1.7.3 1.1.2.4.5.8.9 1.2.1.1.4.4.7.6 1.1 1 1.8 1.7 2.2 2.2.4.4.6.9.8 1.3.2.5.3.9.3 1.5 0 1-.4 1.7-1.1 2.3-.7.6-1.6.9-2.8.9-1.2 0-2.1-.3-2.8-1-.8-.8-1.2-1.7-1.3-2.9zm9.8 3.5v-13.5h7v1.8H151v3.7h3.4v1.8H151v4.3h4.8v1.8h-7.4zm11.6-7.9h.8c.8 0 1.4-.1 1.7-.4.3-.3.5-.8.5-1.6 0-.7-.2-1.2-.5-1.5-.3-.3-.9-.4-1.7-.4h-.8v3.9zm0 6.1h.9c.9 0 1.5-.2 1.8-.5.3-.3.5-.9.5-1.8 0-.8-.2-1.3-.5-1.6-.3-.3-.9-.5-1.8-.5h-.9v4.4zm-2.6 1.8v-13.5h3.3c1.9 0 3.2.3 3.9.8.7.5 1.1 1.4 1.1 2.7 0 .8-.1 1.5-.4 1.9-.3.5-.7.8-1.3 1 .7.2 1.2.6 1.5 1.1.3.5.5 1.2.5 2.1 0 1.4-.4 2.4-1.2 3-.8.6-2.1.9-3.9.9h-3.5zm13-4.6h2.1l-1-7.9h-.1l-1 7.9zm-3.2 4.6l2.6-13.5h3.4l2.7 13.5h-2.6l-.4-2.7h-2.6l-.4 2.7h-2.7zm10.3 0v-13.5h2.6v11.7h4.8v1.9h-7.4zm8.8 0v-13.5h2.6v11.7h4.8v1.9h-7.4z"/><path id="path2529" class="st0" d="M31.5 77.3c0 4.3-3.5 7.8-7.8 7.8s-7.8-3.5-7.8-7.8 3.5-7.8 7.8-7.8 7.8 3.5 7.8 7.8z"/></svg>